<svg xmlns="http://www.w3.org/2000/svg" width="1200" height="630" viewBox="0 0 1200 630" role="img" aria-labelledby="title desc"><title id="title">Build a family-safe bedtime routine</title><desc id="desc">Separate a gentle wind-down from an intentional good-night action while preserving occupied rooms, safety alerts, and manual control.</desc><style>
  @media (prefers-color-scheme: dark) {
    rect[fill="#f8f9fa"] { fill: #14191c; }
    rect[fill="#ffffff"], path[fill="#ffffff"] { fill: #1d2428; }
    [fill="#eef2f3"] { fill: #293238; }
    text[fill="#2c3e50"], circle[fill="#2c3e50"] { fill: #e7edef; }
    text[fill="#5d6d75"], text[fill="#6b777c"] { fill: #b7c2c6; }
    [stroke="#2c3e50"] { stroke: #d7e0e3; }
    [stroke="#9db1b6"] { stroke: #72858c; }
    [stroke="#e0e0e0"] { stroke: #3d494f; }
  }
</style><rect width="1200" height="630" fill="#f8f9fa" /><rect x="52" y="52" width="1096" height="526" rx="28" fill="#ffffff" stroke="#e0e0e0" stroke-width="2" /><rect x="108" y="88" width="214" height="43" rx="21" fill="#eef2f3" /><text x="131" y="116" fill="#2c3e50" font-family="Segoe UI, Arial, sans-serif" font-size="19" font-weight="600">DAILY ROUTINES</text><text x="108" y="171" fill="#2c3e50" font-family="Segoe UI, Arial, sans-serif" font-size="54" font-weight="700">Build a family-safe</text><text x="108" y="233" fill="#2c3e50" font-family="Segoe UI, Arial, sans-serif" font-size="54" font-weight="700">bedtime routine</text><text x="108" y="322" fill="#5d6d75" font-family="Segoe UI, Arial, sans-serif" font-size="22">Separate a gentle wind-down from an</text><text x="108" y="353" fill="#5d6d75" font-family="Segoe UI, Arial, sans-serif" font-size="22">intentional good-night action while preserving</text><text x="108" y="384" fill="#5d6d75" font-family="Segoe UI, Arial, sans-serif" font-size="22">occupied rooms, safety alerts, and manual...</text><g transform="translate(108 469)" font-family="Segoe UI, Arial, sans-serif" font-size="17" font-weight="600"><rect width="105" height="39" rx="19" fill="#eef2f3" /><text x="23" y="25" fill="#2c3e50">TRIGGER</text><path d="M117 20h39" stroke="#9db1b6" stroke-width="4" /><rect x="168" width="96" height="39" rx="19" fill="#eef2f3" /><text x="190" y="25" fill="#2c3e50">CHECK</text><path d="M276 20h39" stroke="#9db1b6" stroke-width="4" /><rect x="327" width="102" height="39" rx="19" fill="#8c8572" /><text x="346" y="25" fill="#ffffff">ACTION</text></g><g transform="translate(690 112) scale(.85)" fill="none" stroke="#2c3e50" stroke-width="9" stroke-linecap="round" stroke-linejoin="round"><path d="M25 197 205 48l180 149" /><path d="M66 177v250h278V177" fill="#eef2f3" /><circle cx="205" cy="270" r="76" fill="#ffffff" /><path d="M205 218v58l42 26" stroke="#8c8572" stroke-width="12" /><circle cx="205" cy="270" r="10" fill="#2c3e50" stroke="none" /><circle cx="405" cy="82" r="45" fill="#8c8572" stroke="none" /><path d="M405 12V-18M405 182v30M335 82h-30M505 82h30M355 32l-22-22M455 132l22 22M455 32l22-22" stroke="#8c8572" stroke-width="7" /></g><text x="108" y="550" fill="#6b777c" font-family="Segoe UI, Arial, sans-serif" font-size="20">HOME AUTOMATION COOKBOOK</text> </svg>