<svg xmlns="http://www.w3.org/2000/svg" width="1200" height="630" viewBox="0 0 1200 630" role="img" aria-labelledby="title desc"><title id="title">Home automation philosophy</title><desc id="desc">Learn the core principles of home automation that work for everyone - reliability, natural behavior adaptation, and graceful failure modes.</desc><style>
  @media (prefers-color-scheme: dark) {
    rect[fill="#f8f9fa"] { fill: #14191c; }
    rect[fill="#ffffff"], path[fill="#ffffff"] { fill: #1d2428; }
    [fill="#eef2f3"] { fill: #293238; }
    text[fill="#2c3e50"], circle[fill="#2c3e50"] { fill: #e7edef; }
    text[fill="#5d6d75"], text[fill="#6b777c"] { fill: #b7c2c6; }
    [stroke="#2c3e50"] { stroke: #d7e0e3; }
    [stroke="#9db1b6"] { stroke: #72858c; }
    [stroke="#e0e0e0"] { stroke: #3d494f; }
  }
</style><rect width="1200" height="630" fill="#f8f9fa" /><rect x="52" y="52" width="1096" height="526" rx="28" fill="#ffffff" stroke="#e0e0e0" stroke-width="2" /><rect x="108" y="88" width="250" height="43" rx="21" fill="#eef2f3" /><text x="131" y="116" fill="#2c3e50" font-family="Segoe UI, Arial, sans-serif" font-size="19" font-weight="600">DESIGN PRINCIPLES</text><text x="108" y="171" fill="#2c3e50" font-family="Segoe UI, Arial, sans-serif" font-size="54" font-weight="700">Home automation</text><text x="108" y="233" fill="#2c3e50" font-family="Segoe UI, Arial, sans-serif" font-size="54" font-weight="700">philosophy</text><text x="108" y="322" fill="#5d6d75" font-family="Segoe UI, Arial, sans-serif" font-size="22">Learn the core principles of home automation</text><text x="108" y="353" fill="#5d6d75" font-family="Segoe UI, Arial, sans-serif" font-size="22">that work for everyone - reliability, natural</text><text x="108" y="384" fill="#5d6d75" font-family="Segoe UI, Arial, sans-serif" font-size="22">behavior adaptation, and graceful failure...</text><g transform="translate(710 125) scale(.85)" fill="none" stroke="#2c3e50" stroke-width="9" stroke-linecap="round" stroke-linejoin="round"><path d="M220 40v340M105 105h230M150 380h140" /><path d="m105 105-73 170h146zm230 0-73 170h146z" fill="#eef2f3" /><circle cx="220" cy="40" r="18" fill="#6f8f96" stroke="none" /><rect x="425" y="145" width="70" height="115" rx="12" fill="#ffffff" /><path d="M447 180h27M447 208h27M447 236h27" stroke="#6f8f96" stroke-width="6" /></g><text x="108" y="550" fill="#6b777c" font-family="Segoe UI, Arial, sans-serif" font-size="20">HOME AUTOMATION COOKBOOK</text> </svg>